<svg xmlns="http://www.w3.org/2000/svg" viewBox="0 0 1200 360" role="img" aria-label="CleverMax Var logo dark">
  <rect width="1200" height="360" fill="#0B1E3A"/>
  <g transform="translate(40,30)">
    <path d="M130 0 L250 46 L250 160 C250 238 200 292 130 320 C60 292 10 238 10 160 L10 46 Z" fill="#0F2A4D"/>
    <path d="M130 28 L226 65 L226 160 C226 224 187 268 130 294 C73 268 34 224 34 160 L34 65 Z" fill="none" stroke="#11C5D9" stroke-width="8"/>
    <circle cx="78" cy="121" r="9" fill="#11C5D9"/>
    <circle cx="130" cy="92" r="9" fill="#11C5D9"/>
    <circle cx="178" cy="140" r="9" fill="#11C5D9"/>
    <path d="M86 121 L122 99 L170 136" stroke="#11C5D9" stroke-width="6" fill="none" stroke-linecap="round"/>
    <rect x="108" y="188" width="44" height="44" rx="10" fill="#F2A65A"/>
  </g>
  <g transform="translate(360,100)">
    <text x="0" y="78" font-size="86" font-family="Trebuchet MS, Verdana, sans-serif" font-weight="800" fill="#F6F1E9" letter-spacing="1">CleverMax</text>
    <text x="0" y="154" font-size="74" font-family="Trebuchet MS, Verdana, sans-serif" font-weight="800" fill="#11C5D9" letter-spacing="2">VAR</text>
  </g>
</svg>
