<svg xmlns="http://www.w3.org/2000/svg" viewBox="0 0 256 256" role="img" aria-label="CleverMax Var icon">
  <rect width="256" height="256" rx="32" fill="#0B1E3A"/>
  <path d="M128 24 L208 56 L208 132 C208 184 174 221 128 240 C82 221 48 184 48 132 L48 56 Z" fill="#11305B"/>
  <path d="M128 40 L194 67 L194 132 C194 176 165 208 128 223 C91 208 62 176 62 132 L62 67 Z" fill="none" stroke="#11C5D9" stroke-width="6"/>
  <circle cx="92" cy="102" r="8" fill="#11C5D9"/>
  <circle cx="128" cy="82" r="8" fill="#11C5D9"/>
  <circle cx="163" cy="116" r="8" fill="#11C5D9"/>
  <path d="M100 102 L121 89 L154 112" stroke="#11C5D9" stroke-width="5" fill="none" stroke-linecap="round"/>
  <rect x="110" y="146" width="36" height="36" rx="9" fill="#F2A65A"/>
</svg>
